<svg xmlns="http://www.w3.org/2000/svg" viewBox="0 0 44 48" fill="none">
  <!-- Outer shield -->
  <path d="M22 2L4 10v14c0 10.5 7.7 20.3 18 22.5C32.3 44.3 40 34.5 40 24V10L22 2z" 
        stroke="#B09B71" stroke-width="1.5" fill="none" opacity="0.5"/>
  <!-- Inner shield -->
  <path d="M22 6L8 12.5v11c0 8.5 6 16.5 14 18.2 8-1.7 14-9.7 14-18.2v-11L22 6z" 
        stroke="#B09B71" stroke-width="1.5" fill="none"/>
  <!-- House -->
  <path d="M22 15l-8 6v8h5v-5h6v5h5v-8l-8-6z" fill="#B09B71" opacity="0.85"/>
  <path d="M22 15l-8 6h16l-8-6z" fill="#B09B71" opacity="0.4"/>
</svg>
